<svg width="106" height="98" viewBox="0 0 106 98" fill="none" xmlns="http://www.w3.org/2000/svg">
<g clip-path="url(#clip0_406_119)">
<path d="M31.7626 6.23769C31.0792 5.55408 31.0791 4.44622 31.7623 3.76252C31.7624 3.76246 31.7625 3.7624 31.7625 3.76233C31.7626 3.76231 31.7626 3.76229 31.7626 3.76226C32.4462 3.07943 33.5542 3.07945 34.2379 3.76256L49.2352 18.7646L49.2353 18.7647C49.919 19.4483 49.919 20.5516 49.2353 21.2353L49.2353 21.2353L34.2376 36.2353C33.5539 36.9189 32.446 36.9189 31.7626 36.2353C31.0791 35.5516 31.0791 34.4483 31.7626 33.7646L31.7626 33.7646L44.9914 20.5302L45.5214 19.9999L44.9913 19.4697L31.7626 6.23771C31.7626 6.2377 31.7626 6.23769 31.7626 6.23769ZM73 33.25C73.9686 33.25 74.75 34.0314 74.75 35C74.75 35.9686 73.9686 36.75 73 36.75H50.5C49.5314 36.75 48.75 35.9686 48.75 35C48.75 34.0314 49.5314 33.25 50.5 33.25H73Z" stroke="#3294F8" stroke-width="1.5"/>
</g>
<path d="M11.4375 71.3438H6.87891V87H4.5V71.3438H0.0351562V69.5391H11.4375V71.3438ZM25.2539 87H22.8398L21.5156 82.5352H15.0586L13.7812 87H11.4961L16.8516 69.5391H20.0273L25.2539 87ZM21.0234 80.8477L19.5469 75.6094L18.3281 71.3203C17.875 72.9375 17.4766 74.3281 17.1328 75.4922L15.5625 80.8477H21.0234ZM40.0547 81.9727C40.0469 82.4648 40.0273 82.8984 39.9961 83.2734C39.9727 83.6406 39.9297 83.9883 39.8672 84.3164C39.8047 84.6445 39.7383 84.9219 39.668 85.1484C39.5977 85.375 39.4844 85.5898 39.3281 85.793C39.1797 85.9883 39.0352 86.1484 38.8945 86.2734C38.7539 86.3906 38.5508 86.5 38.2852 86.6016C38.0273 86.6953 37.7773 86.7656 37.5352 86.8125C37.293 86.8594 36.9688 86.8984 36.5625 86.9297C36.1641 86.9609 35.7773 86.9805 35.4023 86.9883C35.0352 86.9961 34.5703 87 34.0078 87H27.75V69.5391H34.3828C35.2656 69.5391 35.9961 69.5859 36.5742 69.6797C37.1602 69.7656 37.6758 69.9258 38.1211 70.1602C38.5742 70.3945 38.9023 70.7266 39.1055 71.1562C39.3086 71.5859 39.4141 72.1328 39.4219 72.7969L39.4336 74.0625C39.4336 74.5938 39.4141 75.0273 39.375 75.3633C39.3359 75.6992 39.2656 76.0039 39.1641 76.2773C39.0703 76.5508 38.9258 76.7656 38.7305 76.9219C38.5352 77.0781 38.2969 77.2109 38.0156 77.3203C37.7422 77.4219 37.3867 77.5117 36.9492 77.5898C37.4805 77.6445 37.9375 77.7617 38.3203 77.9414C38.7031 78.1211 39.0039 78.3359 39.2227 78.5859C39.4492 78.8359 39.625 79.1523 39.75 79.5352C39.875 79.918 39.957 80.293 39.9961 80.6602C40.0352 81.0273 40.0547 81.4648 40.0547 81.9727ZM37.1133 73.5586C37.1133 73.543 37.1133 73.5195 37.1133 73.4883C37.1133 73.1602 37.1133 72.9297 37.1133 72.7969C37.1133 72.6562 37.0898 72.4883 37.043 72.293C37.0039 72.0898 36.9609 71.957 36.9141 71.8945C36.875 71.832 36.7773 71.75 36.6211 71.6484C36.4727 71.5391 36.3242 71.4766 36.1758 71.4609C36.0273 71.4375 35.793 71.4102 35.4727 71.3789C35.1602 71.3398 34.8477 71.3203 34.5352 71.3203C34.2227 71.3203 33.7969 71.3203 33.2578 71.3203H30.1055V76.9219H32.4609C33.4844 76.9219 34.3125 76.8945 34.9453 76.8398C35.5781 76.7773 36.0469 76.6758 36.3516 76.5352C36.6641 76.3867 36.8672 76.2305 36.9609 76.0664C37.0625 75.9023 37.1133 75.6836 37.1133 75.4102V73.5586ZM37.7344 81.4102C37.7188 80.4805 37.6836 79.8945 37.6289 79.6523C37.5195 79.2227 37.25 78.9297 36.8203 78.7734C36.2891 78.5703 35.1016 78.4648 33.2578 78.457C33.1328 78.457 32.9961 78.457 32.8477 78.457H30.1055V85.2305H34.582C35.4883 85.2305 36.1719 85.1562 36.6328 85.0078C37.0938 84.8516 37.3984 84.6211 37.5469 84.3164C37.6953 84.0117 37.7656 83.5625 37.7578 82.9688L37.7344 81.4102ZM60.2109 81.9727C60.2031 82.4648 60.1836 82.8984 60.1523 83.2734C60.1289 83.6406 60.0859 83.9883 60.0234 84.3164C59.9609 84.6445 59.8945 84.9219 59.8242 85.1484C59.7539 85.375 59.6406 85.5898 59.4844 85.793C59.3359 85.9883 59.1914 86.1484 59.0508 86.2734C58.9102 86.3906 58.707 86.5 58.4414 86.6016C58.1836 86.6953 57.9336 86.7656 57.6914 86.8125C57.4492 86.8594 57.125 86.8984 56.7188 86.9297C56.3203 86.9609 55.9336 86.9805 55.5586 86.9883C55.1914 86.9961 54.7266 87 54.1641 87H47.9062V69.5391H54.5391C55.4219 69.5391 56.1523 69.5859 56.7305 69.6797C57.3164 69.7656 57.832 69.9258 58.2773 70.1602C58.7305 70.3945 59.0586 70.7266 59.2617 71.1562C59.4648 71.5859 59.5703 72.1328 59.5781 72.7969L59.5898 74.0625C59.5898 74.5938 59.5703 75.0273 59.5312 75.3633C59.4922 75.6992 59.4219 76.0039 59.3203 76.2773C59.2266 76.5508 59.082 76.7656 58.8867 76.9219C58.6914 77.0781 58.4531 77.2109 58.1719 77.3203C57.8984 77.4219 57.543 77.5117 57.1055 77.5898C57.6367 77.6445 58.0938 77.7617 58.4766 77.9414C58.8594 78.1211 59.1602 78.3359 59.3789 78.5859C59.6055 78.8359 59.7812 79.1523 59.9062 79.5352C60.0312 79.918 60.1133 80.293 60.1523 80.6602C60.1914 81.0273 60.2109 81.4648 60.2109 81.9727ZM57.2695 73.5586C57.2695 73.543 57.2695 73.5195 57.2695 73.4883C57.2695 73.1602 57.2695 72.9297 57.2695 72.7969C57.2695 72.6562 57.2461 72.4883 57.1992 72.293C57.1602 72.0898 57.1172 71.957 57.0703 71.8945C57.0312 71.832 56.9336 71.75 56.7773 71.6484C56.6289 71.5391 56.4805 71.4766 56.332 71.4609C56.1836 71.4375 55.9492 71.4102 55.6289 71.3789C55.3164 71.3398 55.0039 71.3203 54.6914 71.3203C54.3789 71.3203 53.9531 71.3203 53.4141 71.3203H50.2617V76.9219H52.6172C53.6406 76.9219 54.4688 76.8945 55.1016 76.8398C55.7344 76.7773 56.2031 76.6758 56.5078 76.5352C56.8203 76.3867 57.0234 76.2305 57.1172 76.0664C57.2188 75.9023 57.2695 75.6836 57.2695 75.4102V73.5586ZM57.8906 81.4102C57.875 80.4805 57.8398 79.8945 57.7852 79.6523C57.6758 79.2227 57.4062 78.9297 56.9766 78.7734C56.4453 78.5703 55.2578 78.4648 53.4141 78.457C53.2891 78.457 53.1523 78.457 53.0039 78.457H50.2617V85.2305H54.7383C55.6445 85.2305 56.3281 85.1562 56.7891 85.0078C57.25 84.8516 57.5547 84.6211 57.7031 84.3164C57.8516 84.0117 57.9219 83.5625 57.9141 82.9688L57.8906 81.4102ZM72.2461 87H63.375V69.5391H65.7539V85.207H72.4805L72.2461 87ZM81.4688 87.2812C80.7891 87.2812 80.1836 87.2656 79.6523 87.2344C79.1289 87.2031 78.6445 87.125 78.1992 87C77.7539 86.8828 77.3711 86.7734 77.0508 86.6719C76.7383 86.5703 76.4531 86.3789 76.1953 86.0977C75.9453 85.8086 75.7383 85.5625 75.5742 85.3594C75.4102 85.1484 75.2695 84.8047 75.1523 84.3281C75.0352 83.8438 74.9492 83.4336 74.8945 83.0977C74.8398 82.7539 74.793 82.2266 74.7539 81.5156C74.7227 80.8047 74.7031 80.1953 74.6953 79.6875C74.6953 79.1797 74.6953 78.4453 74.6953 77.4844C74.6953 76.3281 74.7266 75.3672 74.7891 74.6016C74.8516 73.8359 74.9727 73.125 75.1523 72.4688C75.3398 71.8125 75.582 71.2969 75.8789 70.9219C76.1836 70.5469 76.5938 70.2266 77.1094 69.9609C77.6328 69.6875 78.2383 69.5039 78.9258 69.4102C79.6211 69.3086 80.4688 69.2578 81.4688 69.2578C82.4141 69.2578 83.2227 69.3047 83.8945 69.3984C84.5664 69.4922 85.1602 69.6602 85.6758 69.9023C86.1992 70.1367 86.6172 70.4336 86.9297 70.793C87.25 71.1445 87.5117 71.6094 87.7148 72.1875C87.918 72.7656 88.0547 73.4141 88.125 74.1328C88.2031 74.8438 88.2422 75.7109 88.2422 76.7344C88.2422 79.625 88.1992 81.5273 88.1133 82.4414C87.9648 84.0039 87.6055 85.1211 87.0352 85.793C86.4336 86.5117 85.4102 86.9648 83.9648 87.1523C83.2773 87.2383 82.4453 87.2812 81.4688 87.2812ZM83.1445 71.1094C82.6992 71.0781 82.1406 71.0625 81.4688 71.0625C80.7969 71.0625 80.2383 71.0781 79.793 71.1094C79.3477 71.1406 78.957 71.207 78.6211 71.3086C78.293 71.4102 78.0391 71.5234 77.8594 71.6484C77.6797 71.7734 77.5312 71.9688 77.4141 72.2344C77.3047 72.4922 77.2305 72.7578 77.1914 73.0312C77.1602 73.3047 77.1367 73.6758 77.1211 74.1445C77.0977 75.5898 77.0859 77.043 77.0859 78.5039C77.0859 80.707 77.1445 82.2148 77.2617 83.0273C77.4492 84.2461 77.8047 84.9492 78.3281 85.1367C78.7188 85.3633 79.7656 85.4766 81.4688 85.4766C83.1719 85.4766 84.2188 85.3633 84.6094 85.1367C84.7578 85.082 84.8906 84.9922 85.0078 84.8672C85.1328 84.7422 85.2344 84.5742 85.3125 84.3633C85.3984 84.1523 85.4727 83.9414 85.5352 83.7305C85.5977 83.5117 85.6484 83.2344 85.6875 82.8984C85.7266 82.5625 85.7578 82.2617 85.7812 81.9961C85.8047 81.7227 85.8203 81.3789 85.8281 80.9648C85.8359 80.543 85.8398 80.1953 85.8398 79.9219C85.8477 79.6484 85.8516 79.2852 85.8516 78.832C85.8516 77.2539 85.8398 75.6914 85.8164 74.1445C85.8008 73.6758 85.7734 73.3047 85.7344 73.0312C85.7031 72.7578 85.6289 72.4922 85.5117 72.2344C85.4023 71.9688 85.2578 71.7734 85.0781 71.6484C84.8984 71.5234 84.6406 71.4102 84.3047 71.3086C83.9766 71.207 83.5898 71.1406 83.1445 71.1094ZM104.273 78.2695V85.7578C103.164 86.7734 100.918 87.2812 97.5352 87.2812C96.8711 87.2812 96.2852 87.2539 95.7773 87.1992C95.2773 87.1445 94.8164 87.0742 94.3945 86.9883C93.9805 86.9023 93.625 86.7578 93.3281 86.5547C93.0312 86.3438 92.7695 86.1328 92.543 85.9219C92.3164 85.7109 92.1328 85.4062 91.9922 85.0078C91.8516 84.6016 91.7344 84.2109 91.6406 83.8359C91.5547 83.4609 91.4883 82.957 91.4414 82.3242C91.4023 81.6914 91.375 81.0859 91.3594 80.5078C91.3438 79.9297 91.3359 79.1875 91.3359 78.2812C91.3359 77.5078 91.3398 76.8477 91.3477 76.3008C91.3633 75.7539 91.3906 75.1953 91.4297 74.625C91.4766 74.0547 91.5352 73.582 91.6055 73.207C91.6836 72.8242 91.7852 72.4414 91.9102 72.0586C92.043 71.668 92.1953 71.3555 92.3672 71.1211C92.5391 70.8789 92.7539 70.6406 93.0117 70.4062C93.2695 70.1719 93.5547 69.9922 93.8672 69.8672C94.1875 69.7422 94.5586 69.6289 94.9805 69.5273C95.4023 69.4258 95.8633 69.3594 96.3633 69.3281C96.8633 69.2891 97.4297 69.2695 98.0625 69.2695C98.1016 69.2695 98.1602 69.2695 98.2383 69.2695C98.7852 69.2695 99.1992 69.2734 99.4805 69.2812C99.7617 69.2891 100.141 69.3203 100.617 69.375C101.102 69.4219 101.473 69.5 101.73 69.6094C101.988 69.7109 102.285 69.8672 102.621 70.0781C102.957 70.2812 103.207 70.5352 103.371 70.8398C103.535 71.1367 103.68 71.5156 103.805 71.9766C103.93 72.4375 103.992 72.9688 103.992 73.5703C103.992 73.7109 103.984 73.9062 103.969 74.1562L101.871 74.5547L101.742 72.2461C101.727 71.7461 101.441 71.4258 100.887 71.2852C100.332 71.1367 99.2812 71.0625 97.7344 71.0625C96.6797 71.0625 95.8828 71.1289 95.3438 71.2617C94.8047 71.3867 94.4297 71.582 94.2188 71.8477C94.0078 72.1133 93.8789 72.5078 93.832 73.0312C93.7617 74.6328 93.7266 76.2734 93.7266 77.9531C93.7266 79.6406 93.7617 81.2812 93.832 82.875C93.8711 83.7188 93.9375 84.2656 94.0312 84.5156C94.1797 84.8984 94.5195 85.1562 95.0508 85.2891C95.5508 85.4141 96.4219 85.4766 97.6641 85.4766C100.336 85.4766 101.816 85.2969 102.105 84.9375C102.098 84.1328 102.094 82.5 102.094 80.0391H99.1406L98.9414 78.2695H104.273Z" fill="#3294F8"/>
<defs>
<clipPath id="clip0_406_119">
<rect width="45" height="40" fill="white" transform="translate(30.5)"/>
</clipPath>
</defs>
</svg>
